<svg xmlns="http://www.w3.org/2000/svg" width="635.6" height="144.8" viewBox="0 0 635.6 144.8"><defs><style>.a{fill:#f4f4f4;}</style></defs><path class="a" d="M62.6,2.4A114.546,114.546,0,0,1,30.5-2.1Q15-6.6,5.6-13.8l11-24.4A74.645,74.645,0,0,0,38-27.6a80.38,80.38,0,0,0,24.8,4q13.8,0,20.4-4.1t6.6-10.9a10.419,10.419,0,0,0-3.9-8.3,29.565,29.565,0,0,0-10-5.3q-6.1-2-16.5-4.4a228.088,228.088,0,0,1-26.2-7.6A42.567,42.567,0,0,1,15.7-76.4Q8.4-84.8,8.4-98.8A38.966,38.966,0,0,1,15-120.9q6.6-9.9,19.9-15.7t32.5-5.8a107.614,107.614,0,0,1,26.2,3.2A77.4,77.4,0,0,1,116-130l-10,24.6q-19.4-11-38.8-11-13.6,0-20.1,4.4t-6.5,11.6q0,7.2,7.5,10.7T71-82.8a228.089,228.089,0,0,1,26.2,7.6,43.386,43.386,0,0,1,17.5,12Q122-55,122-41a38.229,38.229,0,0,1-6.7,21.9Q108.6-9.2,95.2-3.4T62.6,2.4Zm139.8,0q-30,0-46.7-16.6T139-61.6V-140h32.4v77.2q0,37.6,31.2,37.6,15.2,0,23.2-9.1t8-28.5V-140h32v78.4q0,30.8-16.7,47.4T202.4,2.4Zm186-74.6H418v56.8A84.568,84.568,0,0,1,391.6-2.2a102.5,102.5,0,0,1-30.2,4.6q-21.8,0-39.2-9.3a69.231,69.231,0,0,1-27.3-25.8Q285-49.2,285-70t9.9-37.3a68.894,68.894,0,0,1,27.5-25.8q17.6-9.3,39.6-9.3a86.659,86.659,0,0,1,33.4,6.2,66.18,66.18,0,0,1,25.2,18L399.8-99q-15-15.8-36.2-15.8a49.409,49.409,0,0,0-23.8,5.6,40.174,40.174,0,0,0-16.2,15.8A46.5,46.5,0,0,0,317.8-70a46.1,46.1,0,0,0,5.8,23.2,41.024,41.024,0,0,0,16.1,15.9,47.718,47.718,0,0,0,23.5,5.7,52.512,52.512,0,0,0,25.2-6ZM511.8,2.4Q490,2.4,472.5-7a69.766,69.766,0,0,1-27.4-25.9A70.707,70.707,0,0,1,435.2-70a70.707,70.707,0,0,1,9.9-37.1A69.767,69.767,0,0,1,472.5-133q17.5-9.4,39.3-9.4T551-133a70.67,70.67,0,0,1,27.4,25.9,70.166,70.166,0,0,1,10,37.1,70.166,70.166,0,0,1-10,37.1A70.669,70.669,0,0,1,551-7Q533.6,2.4,511.8,2.4Zm0-27.6a44.426,44.426,0,0,0,22.4-5.7,40.9,40.9,0,0,0,15.7-15.9A46.741,46.741,0,0,0,555.6-70a46.741,46.741,0,0,0-5.7-23.2,40.9,40.9,0,0,0-15.7-15.9,44.426,44.426,0,0,0-22.4-5.7,44.425,44.425,0,0,0-22.4,5.7,40.9,40.9,0,0,0-15.7,15.9A46.741,46.741,0,0,0,468-70a46.741,46.741,0,0,0,5.7,23.2,40.9,40.9,0,0,0,15.7,15.9A44.426,44.426,0,0,0,511.8-25.2Zm97-114.8h32.4V0H608.8Z" transform="translate(-5.6 142.4)"/></svg>