<svg xmlns="http://www.w3.org/2000/svg" xmlns:xlink="http://www.w3.org/1999/xlink" width="144.116" height="30.387" viewBox="0 0 144.116 30.387"><defs><style>.a{fill:none;}.b{fill:#fff;}.c{clip-path:url(#a);}.d{fill:#f27e1a;}</style><clipPath id="a"><rect class="a" width="27.945" height="30.387"/></clipPath></defs><g transform="translate(-160 -3904)"><path class="b" d="M10.035,5.13A18.7,18.7,0,0,1,4.793,4.4,12.292,12.292,0,0,1,.728,2.485L2.524-1.5A12.187,12.187,0,0,0,6.018.232a13.124,13.124,0,0,0,4.049.653A6.469,6.469,0,0,0,13.4.215a2.022,2.022,0,0,0,1.078-1.78,1.7,1.7,0,0,0-.637-1.355,4.827,4.827,0,0,0-1.633-.865q-1-.327-2.694-.718A37.24,37.24,0,0,1,5.234-5.744,6.95,6.95,0,0,1,2.377-7.736a5.379,5.379,0,0,1-1.192-3.657A6.362,6.362,0,0,1,2.263-15a7.249,7.249,0,0,1,3.249-2.563,13.258,13.258,0,0,1,5.306-.947,17.571,17.571,0,0,1,4.278.522,12.637,12.637,0,0,1,3.657,1.5l-1.633,4.016a12.745,12.745,0,0,0-6.335-1.8,5.94,5.94,0,0,0-3.282.718,2.193,2.193,0,0,0-1.061,1.894A1.852,1.852,0,0,0,7.667-9.908a19.226,19.226,0,0,0,3.739,1.127A37.241,37.241,0,0,1,15.684-7.54a7.084,7.084,0,0,1,2.857,1.959,5.253,5.253,0,0,1,1.192,3.625,6.242,6.242,0,0,1-1.094,3.576,7.35,7.35,0,0,1-3.282,2.563A13.379,13.379,0,0,1,10.035,5.13Zm23.479,0q-4.9,0-7.625-2.71T23.162-5.32v-12.8h5.29v12.6q0,6.139,5.094,6.139A4.775,4.775,0,0,0,37.334-.862,6.926,6.926,0,0,0,38.64-5.516v-12.6h5.225v12.8q0,5.029-2.727,7.739T33.513,5.13ZM64.535-7.05h4.833V2.224a13.808,13.808,0,0,1-4.31,2.155,16.735,16.735,0,0,1-4.931.751,13.362,13.362,0,0,1-6.4-1.518A11.3,11.3,0,0,1,49.269-.6a11.606,11.606,0,0,1-1.616-6.09,11.606,11.606,0,0,1,1.616-6.09,11.249,11.249,0,0,1,4.49-4.212,13.624,13.624,0,0,1,6.466-1.518A14.149,14.149,0,0,1,65.678-17.5a10.805,10.805,0,0,1,4.114,2.939l-3.4,3.135a7.855,7.855,0,0,0-5.91-2.58,8.067,8.067,0,0,0-3.886.914,6.559,6.559,0,0,0-2.645,2.58,7.593,7.593,0,0,0-.947,3.821A7.527,7.527,0,0,0,53.955-2.9a6.7,6.7,0,0,0,2.629,2.6A7.791,7.791,0,0,0,60.42.623a8.574,8.574,0,0,0,4.114-.98Zm20.8,12.18A13.342,13.342,0,0,1,78.919,3.6,11.391,11.391,0,0,1,74.445-.634a11.545,11.545,0,0,1-1.616-6.057,11.545,11.545,0,0,1,1.616-6.057,11.391,11.391,0,0,1,4.474-4.229,13.342,13.342,0,0,1,6.417-1.535,13.247,13.247,0,0,1,6.4,1.535,11.538,11.538,0,0,1,4.474,4.229,11.456,11.456,0,0,1,1.633,6.057A11.456,11.456,0,0,1,96.21-.634,11.538,11.538,0,0,1,91.736,3.6,13.247,13.247,0,0,1,85.336,5.13Zm0-4.506a7.253,7.253,0,0,0,3.657-.931,6.679,6.679,0,0,0,2.563-2.6,7.632,7.632,0,0,0,.931-3.788,7.632,7.632,0,0,0-.931-3.788,6.679,6.679,0,0,0-2.563-2.6,7.253,7.253,0,0,0-3.657-.931,7.253,7.253,0,0,0-3.657.931,6.678,6.678,0,0,0-2.563,2.6,7.631,7.631,0,0,0-.931,3.788A7.631,7.631,0,0,0,79.115-2.9a6.678,6.678,0,0,0,2.563,2.6A7.253,7.253,0,0,0,85.336.623Zm16.49-18.744h5.29V4.738h-5.29Z" transform="translate(197 3926)"/><g transform="translate(160 3904)"><g class="c"><path class="d" d="M26.99,14.138h0a4.267,4.267,0,0,0-2.738-1.546,2.663,2.663,0,0,0-.468-.042H12.333l6.1-4.937A4.283,4.283,0,1,0,13.04.955L1.588,10.227a4.286,4.286,0,0,0,.319,6.893,2.635,2.635,0,0,0,1.811.719H15.613l-6.1,4.937a4.283,4.283,0,1,0,5.39,6.657l11.451-9.272a4.283,4.283,0,0,0,.634-6.024" transform="translate(0 -0.001)"/></g></g></g></svg>