<svg xmlns="http://www.w3.org/2000/svg" width="677.6" height="144.8" viewBox="0 0 677.6 144.8"><defs><style>.a{fill:#f4f4f4;}</style></defs><path class="a" d="M62.6,2.4A114.546,114.546,0,0,1,30.5-2.1Q15-6.6,5.6-13.8l11-24.4A74.645,74.645,0,0,0,38-27.6a80.38,80.38,0,0,0,24.8,4q13.8,0,20.4-4.1t6.6-10.9a10.419,10.419,0,0,0-3.9-8.3,29.565,29.565,0,0,0-10-5.3q-6.1-2-16.5-4.4a228.088,228.088,0,0,1-26.2-7.6A42.567,42.567,0,0,1,15.7-76.4Q8.4-84.8,8.4-98.8A38.966,38.966,0,0,1,15-120.9q6.6-9.9,19.9-15.7t32.5-5.8a107.614,107.614,0,0,1,26.2,3.2A77.4,77.4,0,0,1,116-130l-10,24.6q-19.4-11-38.8-11-13.6,0-20.1,4.4t-6.5,11.6q0,7.2,7.5,10.7T71-82.8a228.089,228.089,0,0,1,26.2,7.6,43.386,43.386,0,0,1,17.5,12Q122-55,122-41a38.229,38.229,0,0,1-6.7,21.9Q108.6-9.2,95.2-3.4T62.6,2.4Zm104.6-116H122.4V-140h122v26.4H199.6V0H167.2ZM323.6,2.4q-21.8,0-39.3-9.4a69.766,69.766,0,0,1-27.4-25.9A70.707,70.707,0,0,1,247-70a70.707,70.707,0,0,1,9.9-37.1A69.767,69.767,0,0,1,284.3-133q17.5-9.4,39.3-9.4t39.2,9.4a70.67,70.67,0,0,1,27.4,25.9,70.166,70.166,0,0,1,10,37.1,70.166,70.166,0,0,1-10,37.1A70.669,70.669,0,0,1,362.8-7Q345.4,2.4,323.6,2.4Zm0-27.6A44.426,44.426,0,0,0,346-30.9a40.9,40.9,0,0,0,15.7-15.9A46.741,46.741,0,0,0,367.4-70a46.741,46.741,0,0,0-5.7-23.2A40.9,40.9,0,0,0,346-109.1a44.425,44.425,0,0,0-22.4-5.7,44.425,44.425,0,0,0-22.4,5.7,40.9,40.9,0,0,0-15.7,15.9A46.74,46.74,0,0,0,279.8-70a46.74,46.74,0,0,0,5.7,23.2,40.9,40.9,0,0,0,15.7,15.9A44.426,44.426,0,0,0,323.6-25.2ZM509.8,0l-27-39H453V0H420.6V-140h60.6q18.6,0,32.3,6.2t21.1,17.6q7.4,11.4,7.4,27t-7.5,26.9Q527-51,513.2-45L544.6,0Zm-.6-89.2q0-11.8-7.6-18.1t-22.2-6.3H453v48.8h26.4q14.6,0,22.2-6.4T509.2-89.2ZM628.8-49.6V0H596.4V-50l-54.2-90h34.4L614-77.8,651.4-140h31.8Z" transform="translate(-5.6 142.4)"/></svg>