<svg xmlns="http://www.w3.org/2000/svg" xmlns:xlink="http://www.w3.org/1999/xlink" width="110.436" height="20.638" viewBox="0 0 110.436 20.638"><defs><style>.a{fill:none;}.b{fill:#222;}.c{clip-path:url(#a);}.d{fill:#f27e1a;}</style><clipPath id="a"><rect class="a" width="18.979" height="20.638"/></clipPath></defs><g transform="translate(-160 -24)"><path class="b" d="M8.138.312A14.891,14.891,0,0,1,3.965-.273,9.787,9.787,0,0,1,.728-1.794l1.43-3.172A9.7,9.7,0,0,0,4.94-3.588a10.449,10.449,0,0,0,3.224.52A5.151,5.151,0,0,0,10.816-3.6a1.61,1.61,0,0,0,.858-1.417A1.354,1.354,0,0,0,11.167-6.1a3.844,3.844,0,0,0-1.3-.689q-.793-.26-2.145-.572a29.651,29.651,0,0,1-3.406-.988A5.534,5.534,0,0,1,2.041-9.932a4.283,4.283,0,0,1-.949-2.912,5.066,5.066,0,0,1,.858-2.873,5.772,5.772,0,0,1,2.587-2.041,10.556,10.556,0,0,1,4.225-.754,13.99,13.99,0,0,1,3.406.416,10.062,10.062,0,0,1,2.912,1.2l-1.3,3.2a10.148,10.148,0,0,0-5.044-1.43,4.729,4.729,0,0,0-2.613.572,1.746,1.746,0,0,0-.845,1.508,1.474,1.474,0,0,0,.975,1.391,15.308,15.308,0,0,0,2.977.9,29.652,29.652,0,0,1,3.406.988,5.64,5.64,0,0,1,2.275,1.56A4.183,4.183,0,0,1,15.86-5.33a4.97,4.97,0,0,1-.871,2.847A5.852,5.852,0,0,1,12.376-.442,10.652,10.652,0,0,1,8.138.312Zm18.694,0a8.236,8.236,0,0,1-6.071-2.158A8.308,8.308,0,0,1,18.59-8.008V-18.2H22.8V-8.164q0,4.888,4.056,4.888a3.8,3.8,0,0,0,3.016-1.183,5.515,5.515,0,0,0,1.04-3.705V-18.2h4.16V-8.008A8.308,8.308,0,0,1,32.9-1.846,8.236,8.236,0,0,1,26.832.312Zm24.7-9.7H55.38V-2A10.994,10.994,0,0,1,51.948-.286a13.324,13.324,0,0,1-3.926.6A10.639,10.639,0,0,1,42.926-.9a9,9,0,0,1-3.549-3.354A9.241,9.241,0,0,1,38.09-9.1a9.241,9.241,0,0,1,1.287-4.849A8.956,8.956,0,0,1,42.952-17.3,10.848,10.848,0,0,1,48.1-18.512a11.266,11.266,0,0,1,4.342.806,8.6,8.6,0,0,1,3.276,2.34l-2.7,2.5a6.254,6.254,0,0,0-4.706-2.054,6.423,6.423,0,0,0-3.094.728,5.223,5.223,0,0,0-2.106,2.054A6.046,6.046,0,0,0,42.354-9.1a5.993,5.993,0,0,0,.754,3.016A5.333,5.333,0,0,0,45.2-4.017a6.2,6.2,0,0,0,3.055.741,6.827,6.827,0,0,0,3.276-.78ZM68.094.312A10.623,10.623,0,0,1,62.985-.91a9.07,9.07,0,0,1-3.562-3.367A9.192,9.192,0,0,1,58.136-9.1a9.192,9.192,0,0,1,1.287-4.823,9.07,9.07,0,0,1,3.562-3.367,10.623,10.623,0,0,1,5.109-1.222,10.548,10.548,0,0,1,5.1,1.222,9.187,9.187,0,0,1,3.562,3.367,9.122,9.122,0,0,1,1.3,4.823,9.122,9.122,0,0,1-1.3,4.823A9.187,9.187,0,0,1,73.19-.91,10.548,10.548,0,0,1,68.094.312Zm0-3.588a5.775,5.775,0,0,0,2.912-.741,5.318,5.318,0,0,0,2.041-2.067A6.076,6.076,0,0,0,73.788-9.1a6.076,6.076,0,0,0-.741-3.016,5.318,5.318,0,0,0-2.041-2.067,5.775,5.775,0,0,0-2.912-.741,5.775,5.775,0,0,0-2.912.741,5.317,5.317,0,0,0-2.041,2.067A6.076,6.076,0,0,0,62.4-9.1a6.076,6.076,0,0,0,.741,3.016,5.317,5.317,0,0,0,2.041,2.067A5.775,5.775,0,0,0,68.094-3.276ZM81.224-18.2h4.212V0H81.224Z" transform="translate(185 43)"/><g transform="translate(160 24)"><g class="c"><path class="d" d="M18.331,9.6h0a2.9,2.9,0,0,0-1.86-1.05,1.809,1.809,0,0,0-.318-.029H8.376l4.141-3.353A2.909,2.909,0,1,0,8.856.649l-7.777,6.3A2.911,2.911,0,0,0,1.3,11.628a1.789,1.789,0,0,0,1.23.488H10.6L6.462,15.469a2.909,2.909,0,1,0,3.661,4.522l7.777-6.3a2.909,2.909,0,0,0,.43-4.091" transform="translate(0 -0.001)"/></g></g></g></svg>